<?xml version="1.0" encoding="UTF-8"?>
<svg id="Layer_2" data-name="Layer 2" xmlns="http://www.w3.org/2000/svg" xmlns:xlink="http://www.w3.org/1999/xlink" viewBox="0 0 1360.1 336.49">
  <defs>
    <style>
      .cls-1 {
        fill: #1f3c85;
      }

      .cls-1, .cls-2, .cls-3, .cls-4 {
        stroke-width: 0px;
      }

      .cls-2 {
        fill: #f0951e;
      }

      .cls-3 {
        fill: url(#radial-gradient);
      }

      .cls-4 {
        fill: #1b2133;
      }
    </style>
    <radialGradient id="radial-gradient" cx="189.87" cy="143.64" fx="189.87" fy="143.64" r="24.19" gradientUnits="userSpaceOnUse">
      <stop offset="0" stop-color="#e94e12"/>
      <stop offset=".24" stop-color="#eb6d07"/>
      <stop offset=".44" stop-color="#f4970e"/>
      <stop offset=".62" stop-color="#fcbf06"/>
      <stop offset=".77" stop-color="#f5ec74"/>
      <stop offset=".97" stop-color="#fff"/>
    </radialGradient>
  </defs>
  <g id="Layer_1-2" data-name="Layer 1">
    <path class="cls-1" d="m321.16,126.4c23.52-21.42,33.31-26.2,33.31-26.2,0,0-22.69-8.9-60.98-3.62.18-.36.35-.73.53-1.09,18.38-37.87,27.88-47.86,27.88-47.86,0,0-23.55-.38-56.66,17.01,4.61-41.18,10.13-53.62,10.13-53.62,0,0-29.19,10.12-60.39,54.09-1.63,2.54-3.14,5.04-4.57,7.49l1.01,9.96c1.69-3.17.15-2.19,2.2-5.55,26.5-39.4,51.37-53.02,51.37-53.02,0,0-2.88,9.8-7,44.18-4.98,2.87-9.3,6.13-14.6,9.85-14.63,11.35-21.71,21.52-29.23,31.68l.85.73c6.66-9.97,13.13-18.63,27.75-30.49,5.25-3.89,17.62-12.36,22.49-15.29-1.21,10.27-3.37,29.78-6.03,40.37-18.1,7.56-33.98,18.07-42.87,26.39h0c7.66-7.92,25.19-14.9,42.87-22.73-1.53,4.87-4.83,13.81-7.09,18.22-13.29,3.66-27.13,9.48-34.77,14.47l.63,4.49c6.22-4.45,17.42-11.32,28.95-14.99-1.21,7.91-7.4,20.35-28.23,23.81l.54,5.37c15.66-4.88,22.6-15.76,29.61-28.32,5.97-1.49,23.6-7.81,31-8.69-11.37,21.62-48.75,53.97-60.33,39.75l.53,5.28c27.71.61,42.51-17.03,56.18-38.98.78-.06,1.57-.13,2.37-.18,5.05-6.08,33.98-3.69,42.57-2.52-1.52,1.4-11.87,13.72-13.51,15.28-22.66,21.41-68.13,53.75-87.22,31.93l.59,4.11c36.9,11.59,65.65-18.6,90.61-42.41,1.32-1.26,2.6-1.61,3.86-2.79,23.38,4.3,35.48,10.33,35.48,10.33,0,0-11.84,3.38-43.81,20.94-26.19,14.38-56.61,32.35-85.9,16.29l.65,6.43c31.62,15.24,64.62-4.41,93.16-20.26,36.8-20.44,50.31-23.16,50.31-23.16,0,0-14.97-10.87-44.2-16.67Zm-56.75-53.54c27.12-14.79,45.2-17.3,45.2-17.3,0,0-8.19,9.67-24.18,42.17-5.1.9-9.57,2.04-15.14,3.49-3.89,1.21-7.57,2.49-11.08,3.8,2.54-10.98,3.99-21.49,5.2-32.16Zm8.3,50.79c-7.51.75-14.36,1.87-20.59,3.26,2.14-4.8,3.89-9.87,5.35-15.08,3-1.18,1.54-6.34,4.86-7.46,5.61-1.61,26.1-6.79,31.16-7.79-3.12,6.28-8.47,30.48-20.78,27.07Zm41.29,1.48c-8.97-1.4-19.09-2.29-30.36-2.29-1.28.06-2.55.14-3.8.22,3.78-6.58,7.21-12.47,10.42-19,31.69-4.88,50.43-1.34,50.43-1.34,0,0-7.89,5.67-26.69,22.41Z"/>
    <path class="cls-1" d="m12.99,143.07s13.51,2.72,50.31,23.16c28.54,15.85,61.54,35.5,93.16,20.26l.65-6.43c-29.29,16.06-59.7-1.91-85.9-16.29-31.97-17.56-43.81-20.94-43.81-20.94,0,0,12.1-6.04,35.48-10.33,1.26,1.18,2.53,1.53,3.86,2.79,24.96,23.81,53.71,54,90.61,42.41l1.44-4.96c-19.09,21.82-65.41-9.66-88.07-31.07-1.64-1.55-11.99-13.87-13.51-15.28,8.59-1.17,37.52-3.56,42.57,2.52.8.06,1.58.12,2.37.18,13.68,21.95,28.48,39.6,56.18,38.98l.53-5.28c-11.58,14.22-47.5-17.61-60.33-39.75,7.4.88,24.86,7.9,30.83,9.39,7.01,12.56,14.12,22.73,29.78,27.61l.54-5.37c-20.83-3.47-27.01-15.9-28.23-23.81,11.53,3.67,22.73,10.54,28.95,14.99l.63-4.49c-7.64-4.99-21.48-10.81-34.77-14.47-2.26-4.41-5.56-13.35-7.09-18.22,17.67,7.82,35.2,14.81,42.87,22.73h0c-8.89-8.32-24.77-18.83-42.87-26.39-2.66-10.59-4.82-30.1-6.03-40.37,4.87,2.93,17.24,11.4,22.49,15.29,14.62,11.87,21.09,20.53,27.75,30.49l.85-.73c-7.52-10.16-14.6-20.33-29.23-31.68-5.31-3.73-9.62-6.98-14.6-9.85-4.12-34.38-7-44.18-7-44.18,0,0,24.87,13.63,51.37,53.02,2.05,3.37.51,2.38,2.2,5.55l1.01-9.96c-1.43-2.45-2.95-4.94-4.57-7.49-31.2-43.97-60.39-54.09-60.39-54.09,0,0,5.53,12.44,10.13,53.62-33.12-17.4-56.66-17.01-56.66-17.01,0,0,9.5,9.99,27.88,47.86.18.36.35.73.53,1.09-38.29-5.28-60.98,3.62-60.98,3.62,0,0,9.79,4.78,33.31,26.2-29.23,5.8-44.2,16.67-44.2,16.67Zm106.16-38.05c-3.51-1.32-7.19-2.59-11.08-3.8-5.57-1.45-10.04-2.59-15.14-3.49-15.99-32.49-24.18-42.17-24.18-42.17,0,0,18.08,2.51,45.2,17.3,1.21,10.67,2.67,21.18,5.2,32.16Zm-34.28-8.44c5.06,1,25.55,6.18,31.16,7.79,3.32,1.12,1.86,6.28,4.86,7.46,1.46,5.21,3.21,10.28,5.35,15.08-6.23-1.39-13.08-2.5-20.59-3.26-12.31,3.42-17.66-20.78-20.78-27.07Zm-47.2,6.14s18.74-3.55,50.43,1.34c3.21,6.53,6.64,12.42,10.42,19-1.25-.08-2.51-.16-3.8-.22-11.27,0-21.38.89-30.36,2.29-18.8-16.74-26.69-22.41-26.69-22.41Z"/>
    <circle class="cls-3" cx="189.87" cy="143.64" r="24.19"/>
    <polygon class="cls-1" points="219.02 221.79 189.54 144.68 160.05 221.79 181.09 240.47 181.46 207.5 188.32 201.74 197.42 205.59 197.61 218.63 196.31 242.76 207.28 231.37 219.02 221.79"/>
    <g>
      <path class="cls-4" d="m189.68,252.81s-3.15,13.58,10.1,13c10.31-.45,38.8-5.47,50.16-7.45,11.36-1.98,34.08,6.22,20.15,32.74-7.5,12.43-34.08,13.93-61.73-5.36-27.65-19.29-42.38-29.74-52.94-34.51-14.04-6.33-48.41-12.59-55.3,22.08-3.55,24.53,22.94,29.37,22.94,29.37,0,0-18.36-5.85-18.65-24.01-.2-12.47,12.11-32.31,36.98-23.79,25.07,8.59,24.97,11.79,60.76,38.37,22.29,15,58.52,27.22,75.67,2.14,10.29-17.15,4.29-40.73-18.65-43.51-17.58-2.14-16.29,4.93-55.52,10.72-13.29,1.88-13.89-3.09-13.96-9.79Z"/>
      <path class="cls-4" d="m168,305.69l-23.11-10.72c-7.57-3.51-16.56-.22-20.07,7.35l-.33.71,9.4,4.19s7.16-2.68,10.25,4.46c6.01,2.64,8.87,4.12,8.87,4.12l-.43.94-8.84-4.02s-7.02,2.5-10.27-4.31c-6.64-3.09-8.71-4.17-9.35-4.54l-.19.41c-3.51,7.57-.22,16.56,7.35,20.07l23.11,10.72c7.57,3.51,16.56.22,20.07-7.35l.91-1.97c3.51-7.57.22-16.56-7.35-20.07Z"/>
    </g>
    <path class="cls-2" d="m189.78,200.32h-.1c-10.35,0-9.41,12.11-9.41,12.11v19.95c-3.82-7.48-23.25-19.23-23.25-19.23l14.58-144.31-7.08.18-14.83,150.37s31.81,17.09,37.82,39.5v-43.69h0c-1.72-.79-2.85-2.53-2.85-4.54,0-2.77,2.24-5.01,5.01-5.01s5.01,2.24,5.01,5.01c0,2.03-1.19,3.77-2.93,4.56h0v43.67c7.58-24.93,37.09-39.49,37.09-39.49,0,0-10.45-110.44-14.71-150.56h-6.14s1.7,16.88,1.7,16.88l12.87,127.43s-19.44,11.75-23.25,19.23c0-16.74,0-19.95,0-19.95,0,0,.86-12.1-9.41-12.1h-.12Z"/>
    <g>
      <path class="cls-2" d="m62.75,164.63c-34.46-18.92-47.22-21.65-47.22-21.65,0,0,13.04-8.34,38.24-12.97,1.35,1.27,2.73,2.57,4.16,3.93,27.14,25.9,62.19,59.73,102.42,46.27l.64-6.29c-37.31,13.65-69.47-17.09-94.14-40.39-1.77-1.67-3.47-3.26-5.12-4.78,9.26-1.26,19.86-1.98,31.8-1.68.86.06,1.71.13,2.55.2,14.92,23.94,34.82,44.08,65.28,42.92l.58-5.7c-26.8.92-44.58-15.97-57.92-36.43,7.98.95,15.15,2.28,21.58,3.89,7.71,13.81,19.14,24.8,36.6,29.93l.58-5.77c-12.81-4.25-21.94-12-28.55-21.72,13.04,4.15,22.51,9.4,29.29,14.41l.68-6.73c-8.34-5.6-19.55-11.16-34.45-15.27-2.44-4.76-4.43-9.83-6.08-15.08,19.8,8.76,32.58,18.65,40.82,27.44l.77-7.58c-9.62-9.24-23.56-19.03-43.73-27.46-2.87-11.42-4.45-23.33-5.75-34.4,5.25,3.16,10.73,6.78,16.39,10.97,16.44,13.34,27.31,25.92,34.48,37.01l.92-9.16c-8.16-11.3-19.72-23.62-36.1-36.34-5.72-4.02-11.29-7.53-16.66-10.62-4.44-37.05-9.38-48.54-9.38-48.54,0,0,29.56,11.93,58.12,54.4,2.57,4.22,4.87,8.3,6.92,12.24l1.1-10.85c-1.8-3.14-3.72-6.34-5.82-9.62C132.14,11.83,97,0,97,0c0,0,5.96,13.41,10.92,57.79-35.69-18.75-61.07-18.34-61.07-18.34,0,0,10.24,10.77,30.04,51.58.19.39.38.78.57,1.18-41.27-5.69-65.73,3.9-65.73,3.9,0,0,10.55,5.15,35.9,28.24C16.14,130.6,0,142.32,0,142.32c0,0,14.56,2.93,54.22,24.96,31.09,17.27,70.85,39.66,105.18,22.21l.71-7.01c-31.82,18.42-68.8-2.16-97.36-17.85Zm53.54-55.99c1.58,5.62,3.46,11.08,5.77,16.25-6.72-1.49-14.1-2.7-22.19-3.51-4.04-6.83-7.66-13.87-11.03-20.65,5.45,1.07,11.21,2.45,17.25,4.18,3.58,1.2,6.97,2.45,10.2,3.72Zm-57.11-59.73s20.4.87,49.63,16.81c1.3,11.5,2.88,23.75,5.61,35.58-3.78-1.42-7.75-2.79-11.94-4.1-6-1.56-11.74-2.79-17.24-3.76-17.23-35.02-26.06-44.53-26.06-44.53Zm-32.58,51.75s20.19-6.58,54.35-1.31c3.46,7.03,7.16,14.31,11.23,21.39-1.35-.09-2.71-.17-4.09-.24-12.15,0-23.05.96-32.72,2.47-20.26-18.04-28.77-22.31-28.77-22.31Z"/>
      <path class="cls-2" d="m330.89,124.35c25.35-23.09,35.9-28.24,35.9-28.24,0,0-24.45-9.6-65.73-3.9.19-.39.38-.79.57-1.18,19.81-40.81,30.04-51.58,30.04-51.58,0,0-25.38-.41-61.07,18.34,4.97-44.38,10.92-57.79,10.92-57.79,0,0-35.13,11.83-68.76,59.21-1.75,2.74-3.39,5.43-4.93,8.07l1.08,10.73c1.83-3.42,3.83-6.94,6.04-10.57,28.56-42.46,58.12-54.4,58.12-54.4,0,0-4.94,11.48-9.38,48.54-5.37,3.09-10.94,6.6-16.66,10.62-15.76,12.24-27.07,24.12-35.17,35.06l.91,9.04c7.18-10.74,17.82-22.83,33.57-35.62,5.66-4.19,11.14-7.81,16.39-10.97-1.3,11.07-2.88,22.98-5.75,34.4-19.51,8.15-33.19,17.58-42.77,26.56l.76,7.49c8.26-8.54,20.82-18.01,39.87-26.44-1.65,5.25-3.64,10.32-6.08,15.08-14.32,3.95-25.23,9.23-33.46,14.61l.67,6.67c6.7-4.79,15.88-9.74,28.3-13.7-6.43,9.46-15.25,17.06-27.53,21.38l.58,5.78c16.88-5.26,28.03-16.07,35.58-29.6,6.44-1.6,13.61-2.94,21.58-3.89-13.17,20.19-30.66,36.9-56.87,36.45l.57,5.69c29.86.66,49.48-19.28,64.22-42.93.85-.07,1.69-.14,2.55-.2,11.94-.3,22.54.42,31.8,1.68-1.64,1.51-3.35,3.1-5.12,4.78-24.43,23.08-56.2,53.45-93.04,40.78l.63,6.26c39.77,12.49,74.43-20.97,101.33-46.63,1.43-1.36,2.8-2.66,4.16-3.93,25.2,4.63,38.24,12.97,38.24,12.97,0,0-12.76,2.72-47.22,21.65-28.23,15.5-64.68,35.79-96.25,18.48l.7,6.93c34.08,16.42,73.32-5.67,104.07-22.75,39.66-22.03,54.22-24.96,54.22-24.96,0,0-16.14-11.72-47.64-17.97Zm-61.17-58.62c29.23-15.94,49.63-16.81,49.63-16.81,0,0-8.83,9.51-26.06,44.53-5.49.97-11.23,2.2-17.24,3.76-4.19,1.31-8.16,2.68-11.94,4.1,2.73-11.83,4.31-24.08,5.61-35.58Zm8.94,55.66c-8.1.81-15.48,2.01-22.19,3.51,2.31-5.17,4.19-10.63,5.77-16.25,3.24-1.27,6.63-2.52,10.2-3.72,6.04-1.74,11.8-3.11,17.25-4.18-3.37,6.77-6.99,13.82-11.03,20.65Zm44.5,1.6c-9.67-1.51-20.57-2.47-32.72-2.47-1.38.07-2.75.15-4.09.24,4.07-7.09,7.77-14.36,11.23-21.39,34.16-5.26,54.35,1.31,54.35,1.31,0,0-8.51,4.28-28.77,22.31Z"/>
    </g>
    <g>
      <path class="cls-2" d="m573.75,88.57h-63.44v19c5.11-4.53,11.27-6.8,18.47-6.8,10.34,0,18.68,3.22,25.01,9.67,6.33,6.45,9.5,14.67,9.5,24.66,0,10.81-3.6,19.43-10.81,25.88-7.21,6.45-16.44,9.67-27.71,9.67-1.74,0-3.08-.06-4.01-.18v-19.69c.7.12,1.62.18,2.79.18,4.76,0,8.45-1.45,11.07-4.36,2.61-2.91,3.92-6.62,3.92-11.15,0-4.18-1.22-7.76-3.66-10.72-2.44-2.97-5.99-4.44-10.63-4.44-4.07,0-7.41,1.48-10.02,4.44-2.61,2.96-3.92,6.88-3.92,11.76v49.49h-24.75v-20.22c-5,4.42-11.15,6.62-18.47,6.62-10.34,0-18.68-3.22-25.01-9.67-6.33-6.45-9.5-14.67-9.5-24.66,0-10.8,3.6-19.43,10.81-25.88,7.2-6.45,16.44-9.67,27.71-9.67,1.63,0,2.96.06,4.01.17v19.69c-.7-.11-1.63-.17-2.79-.17-4.76,0-8.45,1.46-11.07,4.36-2.61,2.91-3.92,6.62-3.92,11.15,0,4.18,1.22,7.76,3.66,10.72,2.44,2.96,5.98,4.44,10.63,4.44,4.07,0,7.41-1.48,10.02-4.44s3.92-6.88,3.92-11.76v-48.1h-63.26v-19.52h151.45v19.52Z"/>
      <path class="cls-2" d="m563.3,88.57v-19.52h112.41v19.52h-17.43v97.42h-24.05v-45.49h-27.54v21.26h-20.74l-6.27-13.94c-3.37-7.67-5.05-13.01-5.05-16.03,0-4.99,2.62-8.19,7.84-9.58v-33.64h-19.17Zm70.93,0h-27.54v32.42h27.54v-32.42Z"/>
      <path class="cls-2" d="m663.68,44.31c-3.6,0-6.62,1.08-9.06,3.22-2.44,2.15-3.66,5.08-3.66,8.8,0,5.23,2.21,10.17,6.62,14.82h-24.75c-.58-.46-1.25-1.19-2-2.18-.75-.99-1.8-3.14-3.14-6.45-1.34-3.31-2-6.77-2-10.37,0-9.52,3.08-16.82,9.24-21.87,6.16-5.05,13.65-7.58,22.48-7.58s15.69,1.46,21.61,4.36v21.79c-5.81-3.02-10.92-4.53-15.34-4.53Z"/>
      <path class="cls-2" d="m718.58,167.52c-11.5,0-21.41-4.18-29.72-12.55-8.31-8.37-13.33-19.87-15.08-34.51,18.13-2.56,27.19-8.6,27.19-18.12,0-5.81-1.69-10.4-5.05-13.77h-30.67v-19.52h120.95v19.52h-17.43v97.42h-24.57v-29.63c-1.98,3.37-5.29,6.07-9.93,8.11-4.65,2.03-9.88,3.05-15.69,3.05Zm4.18-21.61c6.62,0,11.85-1.92,15.69-5.75,3.83-3.83,5.75-9.58,5.75-17.25v-34.33h-22.66c2.44,3.72,3.66,8.72,3.66,14.99,0,7.55-2.12,13.74-6.36,18.56-4.24,4.82-9.73,8.34-16.47,10.54,2.67,8.83,9.47,13.25,20.39,13.25Z"/>
      <path class="cls-2" d="m817.74,69.05h17.25v19.52h-17.43v97.42h-24.4v-97.42h-17.43v-19.52h15.69l-11.68-17.08c-3.14-4.76-7.55-7.14-13.24-7.14-3.6,0-7.32.58-11.15,1.74v-20.57c4.18-.81,8.6-1.22,13.24-1.22,7.09.12,13.07,1.39,17.95,3.83,4.88,2.44,9.18,6.51,12.9,12.2l18.3,28.24Z"/>
      <path class="cls-2" d="m824.54,69.05h112.41v19.52h-17.43v97.42h-24.4v-97.42h-19.34v37.3c0,8.37-2.35,14.58-7.06,18.65-4.71,4.07-10.78,6.1-18.21,6.1-5.58,0-10.75-.81-15.51-2.44v-19.17c2.55,1.4,5.4,2.09,8.54,2.09,5.11,0,7.67-2.67,7.67-8.02v-34.51h-26.67v-19.52Z"/>
      <path class="cls-2" d="m968.32,69.05h17.6v19.52h-17.43v97.42h-24.57v-97.42h-17.43v-19.52h17.25v-10.46c0-4.3-1.13-7.61-3.4-9.93-2.27-2.33-5.49-3.49-9.67-3.49-8.13,0-12.2,4.47-12.2,13.42v4.36h-24.75v-5.23c0-10.92,3.49-19.17,10.46-24.75,6.97-5.58,15.8-8.37,26.49-8.37s19.78,2.76,26.93,8.28c7.14,5.52,10.72,13.74,10.72,24.66v11.5Z"/>
      <path class="cls-1" d="m1091.01,120.12v-51.06h41.48v19.52h-17.43v97.42h-24.05v-46.36h-26.67v21.79h-21.26l-6.27-13.42c-3.14-6.62-4.71-11.73-4.71-15.34,0-6.04,2.67-9.82,8.02-11.33v-24.92c0-5.46-2.68-8.19-8.02-8.19-3.02,0-6.16.82-9.41,2.44v-19c4.41-2.33,9.41-3.49,14.99-3.49,17.78,0,26.66,8.43,26.66,25.27v26.66h26.67Z"/>
      <path class="cls-1" d="m1122.03,88.57v-19.52h59.43v19.52h-17.43v97.42h-24.57v-97.42h-17.43Z"/>
      <path class="cls-1" d="m1182.33,141.38v-19.17h13.25c10.69,0,16.03-4.41,16.03-13.25v-20.39h-40.61v-19.52h83.13v19.52h-18.13v21.79c0,7.79-1.95,14.32-5.84,19.61-3.89,5.29-9.5,8.63-16.82,10.02-.93.23-1.8.35-2.62.35l35.73,45.66h-29.63l-34.51-44.62Z"/>
      <path class="cls-1" d="m1360.1,69.05v19.52h-17.43v97.42h-24.75v-62.74h-12.2c-7.9,0-13.91,1.77-18.04,5.32-4.13,3.54-6.19,8.69-6.19,15.42,0,14.18,6.1,21.26,18.3,21.26,1.28,0,2.27-.06,2.96-.17v20.39c-2.79.24-5.11.35-6.97.35-12.32,0-21.9-3.86-28.76-11.59-6.86-7.73-10.28-17.86-10.28-30.41s4.07-22.13,12.2-29.45c8.13-7.32,20.16-10.98,36.08-10.98h12.9v-14.81h-74.24v-19.52h116.42Z"/>
    </g>
    <g>
      <path class="cls-4" d="m672.03,229.18v6.1h-6.81v36.29h-7.64v-24.79c-.64-.13-1.31-.19-1.99-.19-2.1,0-3.66.57-4.69,1.7-1.03,1.14-1.54,2.95-1.54,5.43v4.3h-7.58v-4.43c0-4.2-1.48-6.29-4.43-6.29-1.54,0-2.78.61-3.73,1.83-.94,1.22-1.41,3.07-1.41,5.56,0,3.25.87,5.83,2.6,7.74s4.36,2.86,7.87,2.86c1.03,0,1.82-.04,2.38-.13v6.17c-1.11.13-2.21.19-3.28.19-5.18,0-9.31-1.56-12.4-4.69-3.08-3.13-4.63-7.22-4.63-12.27,0-4.07,1.05-7.34,3.15-9.83,2.1-2.48,4.99-3.72,8.67-3.72,2.48,0,4.51.54,6.07,1.61,1.56,1.07,2.54,2.49,2.92,4.24,1.11-4.15,4.3-6.23,9.57-6.23.77,0,1.58.11,2.44.32v-5.65h-37.25v-6.1h51.71Z"/>
      <path class="cls-4" d="m682.82,229.18h6.81v6.1h-6.81v36.29h-7.45v-36.29h-6.81v-6.1h6.17l-4.69-6.94c-1.24-1.97-2.98-2.95-5.2-2.95-1.16,0-2.42.19-3.79.58v-6.36c1.8-.3,3.25-.45,4.37-.45,4.67.04,8.24,1.99,10.73,5.85l6.68,10.28Z"/>
      <path class="cls-4" d="m740.69,235.28h-23.51v7.9c1.97-1.84,4.33-2.76,7.07-2.76,3.72,0,6.72,1.13,8.99,3.4,2.27,2.27,3.4,5.2,3.4,8.8,0,3.89-1.3,7-3.89,9.31-2.59,2.31-5.86,3.47-9.79,3.47-.69,0-1.18-.02-1.48-.06v-6.1c.26.04.64.06,1.16.06,1.93,0,3.48-.61,4.66-1.83,1.18-1.22,1.77-2.79,1.77-4.72,0-1.8-.55-3.29-1.64-4.49s-2.56-1.8-4.4-1.8c-1.67,0-3.06.59-4.17,1.77-1.11,1.18-1.67,2.69-1.67,4.53v18.82h-7.58v-8.22c-1.93,1.8-4.28,2.7-7.06,2.7-3.68,0-6.67-1.13-8.96-3.4-2.29-2.27-3.44-5.2-3.44-8.8,0-3.89,1.29-7,3.89-9.32,2.59-2.31,5.85-3.47,9.79-3.47.64,0,1.13.02,1.48.07v6.1c-.26-.04-.64-.06-1.16-.06-1.93,0-3.48.61-4.66,1.83-1.18,1.22-1.77,2.8-1.77,4.72,0,1.8.55,3.3,1.64,4.5s2.58,1.8,4.46,1.8c1.63,0,3-.59,4.11-1.77,1.11-1.18,1.67-2.69,1.67-4.53v-18.43h-23.44v-6.1h54.53v6.1Z"/>
      <path class="cls-4" d="m781.74,218.33v6.81c-4.15-1.88-8.49-3.38-13.01-4.5-4.52-1.11-8.21-1.67-11.08-1.67-1.97,0-3.48.53-4.53,1.58s-1.57,2.49-1.57,4.33v4.3h6.81v6.1h-6.81v36.29h-7.52v-36.29h-6.81v-6.1h6.81v-4.43c0-3.64,1.19-6.57,3.56-8.8,2.38-2.23,5.66-3.34,9.86-3.34,3.77,0,7.54.48,11.3,1.45,3.77.96,8.09,2.39,12.97,4.27Z"/>
      <path class="cls-4" d="m786.62,245.37h-16.06c-1.88,0-2.83.73-2.83,2.19s.73,2.7,2.18,3.72c1.84-.43,3.75-.64,5.72-.64,3.73,0,6.71.9,8.96,2.7,2.25,1.8,3.37,4,3.37,6.62,0,1.54-.21,2.76-.64,3.66h-7.39c.51-.81.77-1.91.77-3.28,0-.98-.46-1.82-1.38-2.51-.92-.68-2.22-1.03-3.89-1.03-2.44,0-4.33.49-5.65,1.48-1.33.99-1.99,2.23-1.99,3.73,0,1.8.78,3.24,2.34,4.33,1.56,1.09,4.01,1.64,7.35,1.64,2.27,0,5.12-.41,8.54-1.22v6.23c-3.34.73-6.32,1.09-8.93,1.09-5.44,0-9.6-1.21-12.49-3.63s-4.34-5.26-4.34-8.51,1.39-6.01,4.18-8.16c-2.96-1.71-4.43-4.09-4.43-7.13,0-2.31.85-4.09,2.54-5.33,1.69-1.24,3.89-1.87,6.58-1.87h10.02v-4.17h-24.28v-6.1h38.35v6.1h-6.61v10.08Z"/>
      <path class="cls-4" d="m831.77,229.18v6.1h-6.81v36.29h-7.52v-23.7h-5.14c-6.55,0-9.83,2.85-9.83,8.54,0,2.74.64,4.88,1.93,6.42,1.28,1.54,3.21,2.31,5.78,2.31.56,0,.96-.02,1.22-.06v6.29c-.94.09-1.71.13-2.31.13-4.41,0-7.88-1.4-10.41-4.21-2.53-2.81-3.79-6.45-3.79-10.95s1.45-8.02,4.34-10.69c2.89-2.68,7.12-4.01,12.68-4.01h5.52v-6.36h-27.68v-6.1h42.01Z"/>
      <path class="cls-4" d="m817.9,223.11c-.86-.88-1.29-1.96-1.29-3.24s.43-2.37,1.29-3.24c.86-.88,1.95-1.32,3.27-1.32s2.38.44,3.28,1.32c.9.88,1.35,1.96,1.35,3.24s-.45,2.37-1.35,3.24c-.9.88-1.99,1.32-3.28,1.32s-2.42-.44-3.27-1.32Z"/>
      <path class="cls-4" d="m844.23,235.28v-6.1h40.72v6.1h-6.81v36.29h-7.39v-17.21h-11.37v8.16h-6.42l-2.06-4.56c-1.2-2.7-1.8-4.65-1.8-5.85,0-1.84.94-3,2.83-3.47v-13.36h-7.71Zm26.53,0h-11.37v12.98h11.37v-12.98Z"/>
      <path class="cls-4" d="m881.49,235.28v-6.1h40.72v6.1h-6.81v36.29h-7.39v-17.21h-11.37v8.16h-6.42l-2.06-4.56c-1.2-2.7-1.8-4.65-1.8-5.85,0-1.84.94-3,2.83-3.47v-13.36h-7.71Zm26.53,0h-11.37v12.98h11.37v-12.98Z"/>
      <path class="cls-4" d="m989.2,235.28h-23.51v7.9c1.97-1.84,4.32-2.76,7.06-2.76,3.73,0,6.72,1.13,8.99,3.4,2.27,2.27,3.4,5.2,3.4,8.8,0,3.89-1.3,7-3.88,9.31-2.59,2.31-5.86,3.47-9.8,3.47-.68,0-1.18-.02-1.48-.06v-6.1c.26.04.64.06,1.16.06,1.93,0,3.48-.61,4.66-1.83,1.18-1.22,1.77-2.79,1.77-4.72,0-1.8-.55-3.29-1.64-4.49-1.09-1.2-2.56-1.8-4.4-1.8-1.67,0-3.06.59-4.17,1.77-1.12,1.18-1.67,2.69-1.67,4.53v18.82h-7.58v-8.22c-1.93,1.8-4.28,2.7-7.07,2.7-3.68,0-6.67-1.13-8.96-3.4-2.29-2.27-3.44-5.2-3.44-8.8,0-3.89,1.29-7,3.89-9.32,2.59-2.31,5.86-3.47,9.79-3.47.64,0,1.13.02,1.48.07v6.1c-.26-.04-.64-.06-1.16-.06-1.93,0-3.48.61-4.66,1.83-1.18,1.22-1.77,2.8-1.77,4.72,0,1.8.55,3.3,1.64,4.5,1.09,1.2,2.58,1.8,4.46,1.8,1.63,0,3-.59,4.11-1.77,1.11-1.18,1.67-2.69,1.67-4.53v-18.43h-23.44v-6.1h54.53v6.1Z"/>
      <path class="cls-4" d="m989.65,254.55v-5.97h4.62c4.41,0,6.62-1.78,6.62-5.33v-7.97h-15.16v-6.1h29.22v6.1h-6.55v8.42c0,2.96-.8,5.36-2.41,7.23s-3.84,2.97-6.71,3.31c-.26.09-.56.13-.9.13l13.36,17.21h-9.06l-13.04-17.02Z"/>
      <path class="cls-4" d="m1063.13,229.18v6.1h-6.81v36.29h-7.52v-36.29h-8.61v13.62c0,3.98-1.07,7.01-3.21,9.09-2.14,2.08-5.14,3.12-8.99,3.12-7.92,0-11.88-4.02-11.88-12.08v-13.75h-4.63v-6.1h51.64Zm-30.38,20.3v-14.2h-9.12v14.2c0,3.51,1.5,5.27,4.5,5.27s4.62-1.76,4.62-5.27Z"/>
      <path class="cls-4" d="m1073.92,229.18h6.87v6.1h-6.81v36.29h-7.52v-36.29h-6.81v-6.1h6.74v-4.43c0-1.76-.48-3.12-1.45-4.08s-2.26-1.45-3.89-1.45c-3.38,0-5.07,1.84-5.07,5.52v1.41h-7.58v-1.67c0-3.85,1.2-6.76,3.6-8.74,2.4-1.97,5.42-2.96,9.06-2.96s6.74.98,9.19,2.93,3.66,4.85,3.66,8.7v4.75Z"/>
      <path class="cls-4" d="m1097.17,264.32c-4.15,0-7.72-1.47-10.69-4.4-2.98-2.93-4.79-7.01-5.43-12.24,6.81-1.07,10.21-3.42,10.21-7.07,0-2.18-.64-3.96-1.93-5.33h-12.01v-6.1h44v6.1h-6.81v36.29h-7.52v-11.5c-.86,1.29-2.16,2.31-3.92,3.09-1.76.77-3.72,1.16-5.91,1.16Zm1.16-6.62c2.66,0,4.76-.75,6.33-2.25,1.56-1.5,2.34-3.66,2.34-6.49v-13.68h-9.76c.98,1.46,1.48,3.34,1.48,5.65,0,5.22-2.95,8.78-8.86,10.66.51,1.84,1.51,3.32,2.99,4.43,1.48,1.11,3.31,1.67,5.49,1.67Z"/>
      <path class="cls-4" d="m1117.86,235.28v-6.1h40.72v6.1h-6.81v36.29h-7.39v-17.21h-11.37v8.16h-6.42l-2.06-4.56c-1.2-2.7-1.8-4.65-1.8-5.85,0-1.84.94-3,2.83-3.47v-13.36h-7.71Zm26.53,0h-11.37v12.98h11.37v-12.98Z"/>
      <path class="cls-4" d="m1161.53,286.86h-9.06l-7.77-11.05h7.64l9.19,11.05Z"/>
    </g>
    <rect class="cls-4" x="1183.59" y="248.4" width="149.87" height="6.49"/>
    <rect class="cls-4" x="451.09" y="248.4" width="149.87" height="6.49"/>
  </g>
</svg>